<svg version="1.1" id="Layer_1" xmlns="http://www.w3.org/2000/svg" xmlns:xlink="http://www.w3.org/1999/xlink" x="0px" y="0px"
	 width="100%" viewBox="0 0 487 332" enable-background="new 0 0 487 332" xml:space="preserve">
<path fill="#000000" opacity="1.000000" stroke="none" 
	d="
M391.000000,333.000000 
	C293.645782,333.000000 196.291550,333.000000 98.468658,332.531372 
	C98.000000,324.794128 98.000000,317.525482 98.000000,310.451782 
	C92.910240,309.920441 88.512093,309.287689 84.092216,309.035004 
	C74.014000,308.458771 63.426781,301.983063 59.809429,290.897461 
	C56.266861,280.041046 56.806335,269.036652 58.266163,258.264404 
	C60.676910,240.475250 64.152557,222.795212 62.843102,204.768768 
	C62.390553,198.538849 60.862072,192.142807 58.524441,186.347260 
	C54.251400,175.753357 45.518353,169.728500 34.096272,166.515182 
	C35.645935,165.809326 36.500557,165.346649 37.404282,165.019699 
	C47.359058,161.417999 54.888123,155.306778 59.070438,145.245163 
	C65.514626,129.742020 63.397511,113.689697 61.703457,97.914360 
	C60.029900,82.329979 56.034584,66.963120 58.031712,51.119781 
	C59.428284,40.040722 64.296585,28.451365 78.766411,25.994648 
	C85.019760,24.932941 91.333412,24.226496 98.000000,23.306164 
	C98.000000,15.937164 98.000000,8.468582 98.000000,1.000000 
	C195.354233,1.000000 292.708466,1.000000 390.531342,1.468637 
	C391.000000,9.206396 391.000000,16.475519 391.000000,23.586411 
	C395.910522,24.104609 400.145416,24.835899 404.396301,24.945244 
	C415.838623,25.239580 425.298615,32.317375 429.122375,43.099548 
	C433.715942,56.052399 431.382019,69.123558 429.750305,82.004250 
	C427.652313,98.565636 423.646759,114.951683 426.057556,131.785797 
	C427.671967,143.058929 431.495544,153.381470 441.601227,160.025497 
	C445.162598,162.366943 449.026154,164.248703 453.004639,166.482315 
	C451.021606,167.456329 449.436249,168.305435 447.795746,169.029510 
	C435.995880,174.237686 429.999817,183.892776 426.988678,195.921143 
	C423.632874,209.326187 425.455902,222.764236 427.213287,236.058884 
	C429.269104,251.611221 433.046509,267.010193 430.937317,282.829193 
	C429.343292,294.784485 422.937408,305.043518 410.202789,307.904022 
	C404.034424,309.289581 397.652863,309.726074 391.000000,310.642944 
	C391.000000,318.064880 391.000000,325.532440 391.000000,333.000000 
M301.025360,273.215790 
	C302.482941,273.810455 303.934692,274.903992 305.398987,274.921021 
	C317.395660,275.060730 329.394623,274.999908 341.392914,275.000000 
	C345.497681,275.000031 349.602448,275.000000 353.612671,275.000000 
	C353.612671,271.298798 353.612671,268.247955 353.612671,264.841583 
	C339.621399,264.841583 326.013763,264.841583 312.325317,264.841583 
	C312.325317,262.081421 312.325317,259.698517 312.325317,256.785156 
	C322.376984,256.785156 332.114319,256.785156 341.734070,256.785156 
	C341.734070,253.633331 341.734070,251.030167 341.734070,247.896851 
	C331.742859,247.896851 322.003601,247.896851 312.390503,247.896851 
	C312.390503,244.964508 312.390503,242.579819 312.390503,239.837830 
	C326.380524,239.837830 339.984436,239.837830 353.668213,239.837830 
	C353.668213,236.404465 353.668213,233.354233 353.668213,230.393906 
	C335.949371,230.393906 318.564972,230.393906 301.004303,230.393906 
	C301.004303,244.611420 301.004303,258.435608 301.025360,273.215790 
M362.477966,85.000000 
	C352.381073,85.000000 342.284210,85.000000 332.241455,85.000000 
	C332.241455,82.013458 332.241455,79.739326 332.241455,76.932167 
	C342.204742,76.932167 351.941284,76.932167 361.631683,76.932167 
	C361.631683,73.664024 361.631683,70.949791 361.631683,67.878983 
	C351.661041,67.878983 342.054962,67.878983 332.304260,67.878983 
	C332.304260,65.120041 332.304260,62.737679 332.304260,59.823593 
	C346.332916,59.823593 360.064453,59.823593 373.756958,59.823593 
	C373.756958,56.678261 373.756958,54.073990 373.756958,51.307594 
	C356.128235,51.307594 338.743469,51.307594 321.368744,51.307594 
	C321.368744,66.001625 321.368744,80.384995 321.368744,94.750481 
	C339.005585,94.750481 356.272552,94.750481 373.689484,94.750481 
	C373.689484,91.445679 373.689484,88.395958 373.689484,85.000000 
	C370.081482,85.000000 366.775604,85.000000 362.477966,85.000000 
M256.154266,51.816399 
	C256.154266,66.082008 256.154266,80.347610 256.154266,94.992012 
	C270.708710,94.992012 284.841339,95.203186 298.962372,94.890137 
	C304.772705,94.761322 308.999542,89.451706 308.999908,83.633553 
	C309.000397,76.135811 309.000580,68.638069 308.999817,61.140324 
	C308.999237,55.502865 305.033936,51.095337 299.315674,51.053127 
	C285.157196,50.948624 270.996796,51.100742 256.154266,51.816399 
M89.000000,253.499908 
	C89.000000,260.590698 89.000000,267.681488 89.000000,274.995300 
	C103.370903,274.995300 117.019073,275.077820 130.665176,274.946259 
	C134.900406,274.905487 140.962387,270.028229 140.979141,266.995789 
	C141.032532,257.332092 141.100143,247.665649 140.887772,238.006302 
	C140.856583,236.587662 139.600128,234.918045 138.456131,233.852417 
	C134.577133,230.239120 129.806259,229.799591 124.665169,229.915863 
	C112.902557,230.181931 101.129822,230.000000 89.000000,230.000000 
	C89.000000,237.900177 89.000000,245.200089 89.000000,253.499908 
M152.385925,232.921417 
	C148.745255,234.162643 147.522903,236.647552 147.927383,240.459564 
	C148.276947,243.754028 148.000000,247.114990 148.000000,250.446548 
	C148.000000,258.543701 148.000000,266.640869 148.000000,274.598694 
	C151.729477,274.598694 154.779938,274.598694 158.191544,274.598694 
	C158.191544,268.597900 158.191544,262.994598 158.191544,257.342163 
	C168.952087,257.342163 179.333862,257.342163 190.253128,257.342163 
	C190.253128,263.406464 190.253128,269.138458 190.253128,274.717010 
	C193.739746,274.717010 196.673233,274.717010 200.000000,274.717010 
	C200.000000,263.645935 199.724930,252.842697 200.120850,242.064087 
	C200.307220,236.990067 199.314301,233.427536 194.057800,232.010208 
	C191.614807,231.351486 189.193253,230.168396 186.735107,230.092392 
	C178.746979,229.845413 170.736465,229.768448 162.755524,230.112183 
	C159.490952,230.252792 156.279984,231.637787 152.385925,232.921417 
M191.000000,80.430038 
	C191.173218,83.531487 190.175262,87.684456 191.794327,89.487770 
	C194.219040,92.188393 198.397751,94.510040 201.980026,94.748795 
	C212.262817,95.434120 222.649811,95.432487 232.933289,94.753479 
	C236.518066,94.516785 240.271790,91.950302 243.236237,89.563400 
	C244.457367,88.580162 243.951736,85.267639 243.972733,83.012169 
	C244.044067,75.349815 243.850662,67.682114 244.069565,60.025356 
	C244.163834,56.727570 243.106522,54.514774 240.023758,53.548851 
	C236.844025,52.552547 233.597427,51.229862 230.342606,51.115372 
	C221.025253,50.787632 211.688843,50.980839 202.360016,51.006104 
	C194.712723,51.026810 191.000275,54.631989 191.000046,61.960217 
	C190.999863,67.790771 191.000000,73.621330 191.000000,80.430038 
M264.295227,274.972382 
	C264.863312,273.661285 265.893707,272.360291 265.922729,271.037384 
	C266.083221,263.718567 265.999878,256.394409 265.999969,249.072067 
	C266.000031,242.810852 266.000000,236.549637 266.000000,230.385803 
	C261.960449,230.385803 258.580017,230.385803 254.707062,230.385803 
	C254.707062,240.118011 254.707062,249.469635 254.707062,260.231537 
	C244.938232,251.169754 235.818680,243.335693 227.496719,234.730286 
	C223.248734,230.337570 219.002090,229.089005 213.282684,230.452713 
	C213.282684,245.190109 213.282684,259.900116 213.282684,274.658020 
	C216.623184,274.658020 219.670410,274.658020 223.189835,274.658020 
	C223.189835,264.951569 223.189835,255.579132 223.189835,245.207611 
	C225.024445,246.325119 226.202774,246.793365 227.058182,247.602859 
	C234.758942,254.890320 242.693832,261.964233 249.946671,269.677521 
	C253.837631,273.815460 257.822052,275.909607 264.295227,274.972382 
M179.995270,62.384560 
	C180.004364,55.870319 176.740936,51.254810 171.064590,51.103825 
	C159.412872,50.793907 147.743042,50.823956 136.089066,51.086529 
	C130.404297,51.214611 127.001190,55.325306 127.000290,60.951744 
	C126.999123,68.280869 126.999878,75.609993 127.000038,82.939117 
	C127.000191,90.152168 131.468384,94.823502 138.972473,94.957077 
	C148.630524,95.128990 158.296875,95.146194 167.954254,94.956055 
	C176.953445,94.778877 181.330933,88.927696 179.287903,80.225616 
	C176.016373,80.225616 172.741135,80.225616 169.448563,80.225616 
	C169.080627,81.941849 168.756561,83.453438 168.496857,84.664795 
	C158.136658,84.664795 148.214737,84.664795 138.394882,84.664795 
	C138.394882,76.272682 138.394882,68.221321 138.394882,60.256367 
	C148.735794,60.256367 158.679779,60.256367 168.759964,60.256367 
	C168.941483,61.896843 169.097168,63.303776 169.372787,65.794785 
	C173.207977,64.892723 176.590546,64.097130 179.995270,62.384560 
M233.000000,170.494415 
	C233.000000,175.255814 233.000000,180.017197 233.000000,184.762482 
	C236.645798,184.762482 239.583450,184.762482 243.058655,184.762482 
	C243.058655,178.811478 243.058655,173.078247 243.058655,167.360962 
	C253.990692,167.360962 264.373047,167.360962 275.116730,167.360962 
	C275.116730,173.323166 275.116730,178.931168 275.116730,184.697479 
	C278.539764,184.697479 281.588806,184.697479 284.647156,184.697479 
	C284.647156,169.672852 284.647156,154.953339 284.647156,140.237671 
	C281.353882,140.237671 278.416229,140.237671 274.941040,140.237671 
	C274.941040,146.188843 274.941040,151.922058 274.941040,157.638870 
	C264.008606,157.638870 253.626450,157.638870 242.882980,157.638870 
	C242.882980,151.676498 242.882980,146.068497 242.882980,140.302704 
	C239.459915,140.302704 236.410873,140.302704 233.000000,140.302704 
	C233.000000,150.232422 233.000000,159.864151 233.000000,170.494415 
M143.494171,161.005264 
	C144.021805,157.952393 144.446793,154.877487 145.096481,151.850815 
	C146.977814,143.086319 147.014008,143.091599 138.892899,140.517075 
	C138.651520,140.440552 138.356201,140.534119 137.609070,140.573563 
	C135.367142,150.673126 133.094345,160.911713 130.600174,172.147568 
	C126.842476,167.622070 124.058548,164.269302 120.164864,159.580017 
	C117.218140,163.999023 114.526428,168.035583 111.834724,172.072144 
	C111.312546,171.518692 110.790367,170.965240 110.268188,170.411789 
	C108.187073,160.360168 106.105965,150.308548 104.009247,140.181564 
	C100.233665,141.443039 97.167236,142.467575 94.099373,143.492599 
	C97.165245,157.435562 100.186729,171.176697 103.155937,184.680069 
	C108.994415,185.551453 113.445404,185.325119 116.858124,179.917465 
	C119.666031,175.468170 121.515289,175.814026 124.488861,180.022797 
	C128.208450,185.287445 133.154877,185.862198 138.710236,184.585419 
	C140.199860,176.821503 141.643524,169.297195 143.494171,161.005264 
M185.505585,140.000000 
	C180.751480,140.000000 175.997375,140.000000 171.222931,140.000000 
	C171.222931,143.624741 171.222931,146.558151 171.222931,150.019028 
	C177.815109,150.019028 184.207672,150.019028 191.099030,150.019028 
	C191.099030,161.920288 191.099030,173.298462 191.099030,184.632446 
	C195.010513,184.632446 198.387894,184.632446 202.280762,184.632446 
	C202.280762,172.895981 202.280762,161.520599 202.280762,149.812393 
	C209.735901,149.812393 216.666214,149.812393 223.672729,149.812393 
	C223.672729,146.404007 223.672729,143.358109 223.672729,140.000000 
	C211.066925,140.000000 198.785538,140.000000 185.505585,140.000000 
M363.000000,261.490051 
	C363.000000,265.912964 363.000000,270.335846 363.000000,274.761414 
	C380.651733,274.761414 397.583557,274.761414 414.701752,274.761414 
	C414.701752,271.469452 414.701752,268.420166 414.701752,264.828613 
	C400.688477,264.828613 386.963715,264.828613 372.888245,264.828613 
	C372.888245,253.015213 372.888245,241.745316 372.888245,230.300171 
	C369.465637,230.300171 366.416321,230.300171 363.000000,230.300171 
	C363.000000,240.561844 363.000000,250.527878 363.000000,261.490051 
M385.364166,156.071976 
	C388.536499,158.080307 391.708801,160.088623 395.066742,162.214462 
	C386.949768,166.942886 379.506805,171.278671 372.306274,175.473221 
	C372.306274,178.319077 372.306274,180.851746 372.306274,184.199585 
	C381.601318,178.739258 390.355988,173.708099 398.993408,168.483078 
	C404.738037,165.007965 404.793610,159.057434 399.209686,155.663147 
	C393.495270,152.189545 387.724731,148.805740 381.926971,145.472733 
	C378.923035,143.745865 375.807037,142.213989 372.711029,140.577835 
	C370.534119,146.792526 372.853638,149.975586 377.838501,152.029083 
	C380.232117,153.015121 382.375519,154.608459 385.364166,156.071976 
M343.805695,173.958038 
	C337.118927,170.079758 330.432190,166.201492 322.989471,161.884766 
	C329.082947,158.301056 334.055328,154.804199 339.495087,152.338470 
	C344.935272,149.872543 347.547974,146.651993 345.461700,140.196243 
	C335.292450,145.998734 325.149780,151.786057 315.479889,157.303619 
	C313.674683,163.931961 315.665344,167.867538 321.830505,170.102676 
	C325.290161,171.356964 328.247864,173.951920 331.510651,175.803696 
	C336.065063,178.388474 340.693268,180.843185 345.289856,183.353546 
	C345.705994,183.048569 346.122131,182.743576 346.538239,182.438599 
	C345.887177,179.679337 345.236115,176.920090 343.805695,173.958038 
M286.316833,230.004532 
	C283.701355,230.004532 281.085876,230.004532 278.286102,230.004532 
	C278.286102,245.196335 278.286102,259.903320 278.286102,274.654968 
	C281.960632,274.654968 285.340485,274.654968 288.989349,274.654968 
	C288.989349,260.352356 289.018036,246.392670 288.915527,232.433975 
	C288.909637,231.627533 287.837402,230.828934 286.316833,230.004532 
M154.023865,141.797226 
	C154.023865,156.059219 154.023865,170.321198 154.023865,184.673782 
	C157.591766,184.673782 160.639496,184.673782 163.638046,184.673782 
	C163.638046,169.634903 163.638046,154.924927 163.638046,139.632202 
	C160.199417,140.075500 157.170395,140.466003 154.023865,141.797226 
M356.012390,182.550644 
	C360.723541,168.198715 365.550354,153.883041 370.069489,139.470901 
	C371.294037,135.565765 371.588287,131.368942 372.282867,127.455948 
	C368.096283,126.327812 366.875641,127.728722 365.855804,130.872894 
	C360.094635,148.635284 353.947601,166.272369 348.150146,184.023376 
	C347.478851,186.078812 348.155701,188.574524 348.212128,191.069763 
	C353.909760,190.244629 355.206726,187.021729 356.012390,182.550644 
z"/>
<path fill="#FFFFFF" opacity="1.000000" stroke="none" 
	d="
M391.468658,333.000000 
	C391.000000,325.532440 391.000000,318.064880 391.000000,310.642944 
	C397.652863,309.726074 404.034424,309.289581 410.202789,307.904022 
	C422.937408,305.043518 429.343292,294.784485 430.937317,282.829193 
	C433.046509,267.010193 429.269104,251.611221 427.213287,236.058884 
	C425.455902,222.764236 423.632874,209.326187 426.988678,195.921143 
	C429.999817,183.892776 435.995880,174.237686 447.795746,169.029510 
	C449.436249,168.305435 451.021606,167.456329 453.004639,166.482315 
	C449.026154,164.248703 445.162598,162.366943 441.601227,160.025497 
	C431.495544,153.381470 427.671967,143.058929 426.057556,131.785797 
	C423.646759,114.951683 427.652313,98.565636 429.750305,82.004250 
	C431.382019,69.123558 433.715942,56.052399 429.122375,43.099548 
	C425.298615,32.317375 415.838623,25.239580 404.396301,24.945244 
	C400.145416,24.835899 395.910522,24.104609 391.000000,23.586411 
	C391.000000,16.475519 391.000000,9.206396 391.000000,1.468637 
	C400.354218,1.000000 409.708466,1.000000 419.251892,1.334103 
	C420.431488,2.116755 421.381104,2.724092 422.418274,2.990514 
	C445.260590,8.857806 457.908691,22.061264 460.523865,44.514599 
	C462.159821,58.560242 460.287842,73.197845 458.574890,87.399155 
	C456.822510,101.927635 454.172089,116.357483 455.100922,131.033478 
	C455.612030,139.109894 458.680298,146.278107 466.182190,150.597672 
	C472.940125,154.488861 480.327240,155.513809 488.000000,155.000000 
	C488.000000,162.354248 488.000000,169.708496 487.547974,177.531372 
	C483.169556,178.346237 479.098114,178.146973 475.345001,179.144913 
	C465.576752,181.742249 457.491333,187.287369 456.266663,197.833771 
	C455.080627,208.047256 455.013367,218.639267 456.291565,228.834747 
	C458.460846,246.137802 461.357086,263.288422 461.085938,280.846924 
	C460.701660,305.728027 447.306427,325.348358 422.549042,331.082184 
	C421.918457,331.228241 421.511353,332.339111 421.000000,333.000000 
	C411.312439,333.000000 401.624878,333.000000 391.468658,333.000000 
z"/>
<path fill="#FFFFFF" opacity="1.000000" stroke="none" 
	d="
M97.531342,1.000000 
	C98.000000,8.468582 98.000000,15.937164 98.000000,23.306164 
	C91.333412,24.226496 85.019760,24.932941 78.766411,25.994648 
	C64.296585,28.451365 59.428284,40.040722 58.031712,51.119781 
	C56.034584,66.963120 60.029900,82.329979 61.703457,97.914360 
	C63.397511,113.689697 65.514626,129.742020 59.070438,145.245163 
	C54.888123,155.306778 47.359058,161.417999 37.404282,165.019699 
	C36.500557,165.346649 35.645935,165.809326 34.096272,166.515182 
	C45.518353,169.728500 54.251400,175.753357 58.524441,186.347260 
	C60.862072,192.142807 62.390553,198.538849 62.843102,204.768768 
	C64.152557,222.795212 60.676910,240.475250 58.266163,258.264404 
	C56.806335,269.036652 56.266861,280.041046 59.809429,290.897461 
	C63.426781,301.983063 74.014000,308.458771 84.092216,309.035004 
	C88.512093,309.287689 92.910240,309.920441 98.000000,310.451782 
	C98.000000,317.525482 98.000000,324.794128 98.000000,332.531372 
	C88.312439,333.000000 78.624878,333.000000 68.752846,332.671875 
	C67.745758,331.897644 66.972343,331.265564 66.093246,331.033051 
	C49.646317,326.682831 37.148098,317.752808 31.518576,301.016327 
	C25.211403,282.265198 27.893482,263.240967 30.424911,244.340363 
	C32.282330,230.472198 35.030239,216.670258 33.876984,202.631317 
	C33.234913,194.815247 30.188662,187.979736 23.018282,183.340302 
	C16.179520,178.915436 8.804735,177.850037 1.000000,178.000000 
	C1.000000,170.645752 1.000000,163.291504 1.458908,155.468628 
	C2.749166,155.000000 3.580593,154.992599 4.411858,155.001083 
	C22.749224,155.188187 35.036686,145.410034 33.996677,125.634537 
	C33.685314,119.713989 33.559776,113.772354 32.953922,107.881012 
	C31.749220,96.166458 29.964746,84.505211 29.001173,72.774185 
	C28.231361,63.402111 27.363102,53.857265 28.349154,44.581581 
	C29.079710,37.709324 31.976398,30.760256 35.219231,24.527557 
	C41.518322,12.420747 52.956081,6.785629 65.473251,3.009485 
	C66.509911,2.696748 67.485085,2.180203 68.488831,1.758351 
	C68.325890,1.505565 68.162949,1.252782 68.000000,0.999999 
	C77.687561,1.000000 87.375122,1.000000 97.531342,1.000000 
z"/>
<path fill="#000000" opacity="1.000000" stroke="none" 
	d="
M421.468658,333.000000 
	C421.511353,332.339111 421.918457,331.228241 422.549042,331.082184 
	C447.306427,325.348358 460.701660,305.728027 461.085938,280.846924 
	C461.357086,263.288422 458.460846,246.137802 456.291565,228.834747 
	C455.013367,218.639267 455.080627,208.047256 456.266663,197.833771 
	C457.491333,187.287369 465.576752,181.742249 475.345001,179.144913 
	C479.098114,178.146973 483.169556,178.346237 487.547974,178.000000 
	C488.000000,229.564651 488.000000,281.129303 488.000000,333.000000 
	C465.980042,333.000000 443.958679,333.000000 421.468658,333.000000 
z"/>
<path fill="#000000" opacity="1.000000" stroke="none" 
	d="
M1.000000,178.468658 
	C8.804735,177.850037 16.179520,178.915436 23.018282,183.340302 
	C30.188662,187.979736 33.234913,194.815247 33.876984,202.631317 
	C35.030239,216.670258 32.282330,230.472198 30.424911,244.340363 
	C27.893482,263.240967 25.211403,282.265198 31.518576,301.016327 
	C37.148098,317.752808 49.646317,326.682831 66.093246,331.033051 
	C66.972343,331.265564 67.745758,331.897644 68.284187,332.671875 
	C45.710758,333.000000 23.421518,333.000000 1.000000,333.000000 
	C1.000000,281.645844 1.000000,230.291580 1.000000,178.468658 
z"/>
<path fill="#000000" opacity="1.000000" stroke="none" 
	d="
M488.000000,154.531342 
	C480.327240,155.513809 472.940125,154.488861 466.182190,150.597672 
	C458.680298,146.278107 455.612030,139.109894 455.100922,131.033478 
	C454.172089,116.357483 456.822510,101.927635 458.574890,87.399155 
	C460.287842,73.197845 462.159821,58.560242 460.523865,44.514599 
	C457.908691,22.061264 445.260590,8.857806 422.418274,2.990514 
	C421.381104,2.724092 420.431488,2.116755 419.720520,1.334103 
	C442.621918,1.000000 465.243835,1.000000 488.000000,1.000000 
	C488.000000,52.020821 488.000000,103.041748 488.000000,154.531342 
z"/>
<path fill="#000000" opacity="1.000000" stroke="none" 
	d="
M67.531342,0.999999 
	C68.162949,1.252782 68.325890,1.505565 68.488831,1.758351 
	C67.485085,2.180203 66.509911,2.696748 65.473251,3.009485 
	C52.956081,6.785629 41.518322,12.420747 35.219231,24.527557 
	C31.976398,30.760256 29.079710,37.709324 28.349154,44.581581 
	C27.363102,53.857265 28.231361,63.402111 29.001173,72.774185 
	C29.964746,84.505211 31.749220,96.166458 32.953922,107.881012 
	C33.559776,113.772354 33.685314,119.713989 33.996677,125.634537 
	C35.036686,145.410034 22.749224,155.188187 4.411858,155.001083 
	C3.580593,154.992599 2.749166,155.000000 1.458908,155.000000 
	C1.000000,103.768463 1.000000,52.536926 1.000000,1.000000 
	C23.019953,1.000000 45.041317,1.000000 67.531342,0.999999 
z"/>
<path fill="#FFFFFF" opacity="1.000000" stroke="none" 
	d="
M301.014832,272.737793 
	C301.004303,258.435608 301.004303,244.611420 301.004303,230.393906 
	C318.564972,230.393906 335.949371,230.393906 353.668213,230.393906 
	C353.668213,233.354233 353.668213,236.404465 353.668213,239.837830 
	C339.984436,239.837830 326.380524,239.837830 312.390503,239.837830 
	C312.390503,242.579819 312.390503,244.964508 312.390503,247.896851 
	C322.003601,247.896851 331.742859,247.896851 341.734070,247.896851 
	C341.734070,251.030167 341.734070,253.633331 341.734070,256.785156 
	C332.114319,256.785156 322.376984,256.785156 312.325317,256.785156 
	C312.325317,259.698517 312.325317,262.081421 312.325317,264.841583 
	C326.013763,264.841583 339.621399,264.841583 353.612671,264.841583 
	C353.612671,268.247955 353.612671,271.298798 353.612671,275.000000 
	C349.602448,275.000000 345.497681,275.000031 341.392914,275.000000 
	C329.394623,274.999908 317.395660,275.060730 305.398987,274.921021 
	C303.934692,274.903992 302.482941,273.810455 301.014832,272.737793 
z"/>
<path fill="#FFFFFF" opacity="1.000000" stroke="none" 
	d="
M362.973846,85.000000 
	C366.775604,85.000000 370.081482,85.000000 373.689484,85.000000 
	C373.689484,88.395958 373.689484,91.445679 373.689484,94.750481 
	C356.272552,94.750481 339.005585,94.750481 321.368744,94.750481 
	C321.368744,80.384995 321.368744,66.001625 321.368744,51.307594 
	C338.743469,51.307594 356.128235,51.307594 373.756958,51.307594 
	C373.756958,54.073990 373.756958,56.678261 373.756958,59.823593 
	C360.064453,59.823593 346.332916,59.823593 332.304260,59.823593 
	C332.304260,62.737679 332.304260,65.120041 332.304260,67.878983 
	C342.054962,67.878983 351.661041,67.878983 361.631683,67.878983 
	C361.631683,70.949791 361.631683,73.664024 361.631683,76.932167 
	C351.941284,76.932167 342.204742,76.932167 332.241455,76.932167 
	C332.241455,79.739326 332.241455,82.013458 332.241455,85.000000 
	C342.284210,85.000000 352.381073,85.000000 362.973846,85.000000 
z"/>
<path fill="#FFFFFF" opacity="1.000000" stroke="none" 
	d="
M256.495728,51.483078 
	C270.996796,51.100742 285.157196,50.948624 299.315674,51.053127 
	C305.033936,51.095337 308.999237,55.502865 308.999817,61.140324 
	C309.000580,68.638069 309.000397,76.135811 308.999908,83.633553 
	C308.999542,89.451706 304.772705,94.761322 298.962372,94.890137 
	C284.841339,95.203186 270.708710,94.992012 256.154266,94.992012 
	C256.154266,80.347610 256.154266,66.082008 256.495728,51.483078 
M270.699890,60.000725 
	C269.473602,60.658588 267.204742,61.281178 267.181091,61.979721 
	C266.924835,69.554550 267.020996,77.141289 267.020996,84.613693 
	C277.727356,84.613693 287.768341,84.613693 297.740967,84.613693 
	C297.740967,76.300545 297.740967,68.376289 297.740967,60.000122 
	C288.878845,60.000122 280.270508,60.000122 270.699890,60.000725 
z"/>
<path fill="#FFFFFF" opacity="1.000000" stroke="none" 
	d="
M89.000000,252.999954 
	C89.000000,245.200089 89.000000,237.900177 89.000000,230.000000 
	C101.129822,230.000000 112.902557,230.181931 124.665169,229.915863 
	C129.806259,229.799591 134.577133,230.239120 138.456131,233.852417 
	C139.600128,234.918045 140.856583,236.587662 140.887772,238.006302 
	C141.100143,247.665649 141.032532,257.332092 140.979141,266.995789 
	C140.962387,270.028229 134.900406,274.905487 130.665176,274.946259 
	C117.019073,275.077820 103.370903,274.995300 89.000000,274.995300 
	C89.000000,267.681488 89.000000,260.590698 89.000000,252.999954 
M100.777420,264.974426 
	C110.708153,264.974426 120.638878,264.974426 130.681885,264.974426 
	C130.681885,256.418884 130.681885,248.376633 130.681885,240.364075 
	C119.986313,240.364075 109.612358,240.364075 98.611107,240.364075 
	C99.030312,248.783310 99.430283,256.816223 100.777420,264.974426 
z"/>
<path fill="#FFFFFF" opacity="1.000000" stroke="none" 
	d="
M152.715271,232.689056 
	C156.279984,231.637787 159.490952,230.252792 162.755524,230.112183 
	C170.736465,229.768448 178.746979,229.845413 186.735107,230.092392 
	C189.193253,230.168396 191.614807,231.351486 194.057800,232.010208 
	C199.314301,233.427536 200.307220,236.990067 200.120850,242.064087 
	C199.724930,252.842697 200.000000,263.645935 200.000000,274.717010 
	C196.673233,274.717010 193.739746,274.717010 190.253128,274.717010 
	C190.253128,269.138458 190.253128,263.406464 190.253128,257.342163 
	C179.333862,257.342163 168.952087,257.342163 158.191544,257.342163 
	C158.191544,262.994598 158.191544,268.597900 158.191544,274.598694 
	C154.779938,274.598694 151.729477,274.598694 148.000000,274.598694 
	C148.000000,266.640869 148.000000,258.543701 148.000000,250.446548 
	C148.000000,247.114990 148.276947,243.754028 147.927383,240.459564 
	C147.522903,236.647552 148.745255,234.162643 152.715271,232.689056 
M172.504089,240.000000 
	C167.745865,240.000000 162.987640,240.000000 158.216156,240.000000 
	C158.216156,242.950958 158.216156,245.221100 158.216156,247.743073 
	C168.810104,247.743073 179.188843,247.743073 189.689362,247.743073 
	C189.689362,245.101196 189.689362,242.721985 189.689362,240.000000 
	C184.091080,240.000000 178.796448,240.000000 172.504089,240.000000 
z"/>
<path fill="#FFFFFF" opacity="1.000000" stroke="none" 
	d="
M191.000000,79.940964 
	C191.000000,73.621330 190.999863,67.790771 191.000046,61.960217 
	C191.000275,54.631989 194.712723,51.026810 202.360016,51.006104 
	C211.688843,50.980839 221.025253,50.787632 230.342606,51.115372 
	C233.597427,51.229862 236.844025,52.552547 240.023758,53.548851 
	C243.106522,54.514774 244.163834,56.727570 244.069565,60.025356 
	C243.850662,67.682114 244.044067,75.349815 243.972733,83.012169 
	C243.951736,85.267639 244.457367,88.580162 243.236237,89.563400 
	C240.271790,91.950302 236.518066,94.516785 232.933289,94.753479 
	C222.649811,95.432487 212.262817,95.434120 201.980026,94.748795 
	C198.397751,94.510040 194.219040,92.188393 191.794327,89.487770 
	C190.175262,87.684456 191.173218,83.531487 191.000000,79.940964 
M201.150635,84.164627 
	C211.636337,84.164627 222.122040,84.164627 232.655914,84.164627 
	C232.655914,76.364525 232.655914,68.322052 232.655914,60.389736 
	C221.933304,60.389736 211.558487,60.389736 201.025452,60.389736 
	C201.025452,68.257530 201.025452,75.736443 201.150635,84.164627 
z"/>
<path fill="#FFFFFF" opacity="1.000000" stroke="none" 
	d="
M263.831604,274.983765 
	C257.822052,275.909607 253.837631,273.815460 249.946671,269.677521 
	C242.693832,261.964233 234.758942,254.890320 227.058182,247.602859 
	C226.202774,246.793365 225.024445,246.325119 223.189835,245.207611 
	C223.189835,255.579132 223.189835,264.951569 223.189835,274.658020 
	C219.670410,274.658020 216.623184,274.658020 213.282684,274.658020 
	C213.282684,259.900116 213.282684,245.190109 213.282684,230.452713 
	C219.002090,229.089005 223.248734,230.337570 227.496719,234.730286 
	C235.818680,243.335693 244.938232,251.169754 254.707062,260.231537 
	C254.707062,249.469635 254.707062,240.118011 254.707062,230.385803 
	C258.580017,230.385803 261.960449,230.385803 266.000000,230.385803 
	C266.000000,236.549637 266.000031,242.810852 265.999969,249.072067 
	C265.999878,256.394409 266.083221,263.718567 265.922729,271.037384 
	C265.893707,272.360291 264.863312,273.661285 263.831604,274.983765 
z"/>
<path fill="#FFFFFF" opacity="1.000000" stroke="none" 
	d="
M179.984192,62.843048 
	C176.590546,64.097130 173.207977,64.892723 169.372787,65.794785 
	C169.097168,63.303776 168.941483,61.896843 168.759964,60.256367 
	C158.679779,60.256367 148.735794,60.256367 138.394882,60.256367 
	C138.394882,68.221321 138.394882,76.272682 138.394882,84.664795 
	C148.214737,84.664795 158.136658,84.664795 168.496857,84.664795 
	C168.756561,83.453438 169.080627,81.941849 169.448563,80.225616 
	C172.741135,80.225616 176.016373,80.225616 179.287903,80.225616 
	C181.330933,88.927696 176.953445,94.778877 167.954254,94.956055 
	C158.296875,95.146194 148.630524,95.128990 138.972473,94.957077 
	C131.468384,94.823502 127.000191,90.152168 127.000038,82.939117 
	C126.999878,75.609993 126.999123,68.280869 127.000290,60.951744 
	C127.001190,55.325306 130.404297,51.214611 136.089066,51.086529 
	C147.743042,50.823956 159.412872,50.793907 171.064590,51.103825 
	C176.740936,51.254810 180.004364,55.870319 179.984192,62.843048 
z"/>
<path fill="#FFFFFF" opacity="1.000000" stroke="none" 
	d="
M233.000000,169.995148 
	C233.000000,159.864151 233.000000,150.232422 233.000000,140.302704 
	C236.410873,140.302704 239.459915,140.302704 242.882980,140.302704 
	C242.882980,146.068497 242.882980,151.676498 242.882980,157.638870 
	C253.626450,157.638870 264.008606,157.638870 274.941040,157.638870 
	C274.941040,151.922058 274.941040,146.188843 274.941040,140.237671 
	C278.416229,140.237671 281.353882,140.237671 284.647156,140.237671 
	C284.647156,154.953339 284.647156,169.672852 284.647156,184.697479 
	C281.588806,184.697479 278.539764,184.697479 275.116730,184.697479 
	C275.116730,178.931168 275.116730,173.323166 275.116730,167.360962 
	C264.373047,167.360962 253.990692,167.360962 243.058655,167.360962 
	C243.058655,173.078247 243.058655,178.811478 243.058655,184.762482 
	C239.583450,184.762482 236.645798,184.762482 233.000000,184.762482 
	C233.000000,180.017197 233.000000,175.255814 233.000000,169.995148 
z"/>
<path fill="#FFFFFF" opacity="1.000000" stroke="none" 
	d="
M143.290680,161.389069 
	C141.643524,169.297195 140.199860,176.821503 138.710236,184.585419 
	C133.154877,185.862198 128.208450,185.287445 124.488861,180.022797 
	C121.515289,175.814026 119.666031,175.468170 116.858124,179.917465 
	C113.445404,185.325119 108.994415,185.551453 103.155937,184.680069 
	C100.186729,171.176697 97.165245,157.435562 94.099373,143.492599 
	C97.167236,142.467575 100.233665,141.443039 104.009247,140.181564 
	C106.105965,150.308548 108.187073,160.360168 110.268188,170.411789 
	C110.790367,170.965240 111.312546,171.518692 111.834724,172.072144 
	C114.526428,168.035583 117.218140,163.999023 120.164864,159.580017 
	C124.058548,164.269302 126.842476,167.622070 130.600174,172.147568 
	C133.094345,160.911713 135.367142,150.673126 137.609070,140.573563 
	C138.356201,140.534119 138.651520,140.440552 138.892899,140.517075 
	C147.014008,143.091599 146.977814,143.086319 145.096481,151.850815 
	C144.446793,154.877487 144.021805,157.952393 143.290680,161.389069 
z"/>
<path fill="#FFFFFF" opacity="1.000000" stroke="none" 
	d="
M186.004852,140.000000 
	C198.785538,140.000000 211.066925,140.000000 223.672729,140.000000 
	C223.672729,143.358109 223.672729,146.404007 223.672729,149.812393 
	C216.666214,149.812393 209.735901,149.812393 202.280762,149.812393 
	C202.280762,161.520599 202.280762,172.895981 202.280762,184.632446 
	C198.387894,184.632446 195.010513,184.632446 191.099030,184.632446 
	C191.099030,173.298462 191.099030,161.920288 191.099030,150.019028 
	C184.207672,150.019028 177.815109,150.019028 171.222931,150.019028 
	C171.222931,146.558151 171.222931,143.624741 171.222931,140.000000 
	C175.997375,140.000000 180.751480,140.000000 186.004852,140.000000 
z"/>
<path fill="#FFFFFF" opacity="1.000000" stroke="none" 
	d="
M363.000000,260.991974 
	C363.000000,250.527878 363.000000,240.561844 363.000000,230.300171 
	C366.416321,230.300171 369.465637,230.300171 372.888245,230.300171 
	C372.888245,241.745316 372.888245,253.015213 372.888245,264.828613 
	C386.963715,264.828613 400.688477,264.828613 414.701752,264.828613 
	C414.701752,268.420166 414.701752,271.469452 414.701752,274.761414 
	C397.583557,274.761414 380.651733,274.761414 363.000000,274.761414 
	C363.000000,270.335846 363.000000,265.912964 363.000000,260.991974 
z"/>
<path fill="#FFFFFF" opacity="1.000000" stroke="none" 
	d="
M384.998199,155.999374 
	C382.375519,154.608459 380.232117,153.015121 377.838501,152.029083 
	C372.853638,149.975586 370.534119,146.792526 372.711029,140.577835 
	C375.807037,142.213989 378.923035,143.745865 381.926971,145.472733 
	C387.724731,148.805740 393.495270,152.189545 399.209686,155.663147 
	C404.793610,159.057434 404.738037,165.007965 398.993408,168.483078 
	C390.355988,173.708099 381.601318,178.739258 372.306274,184.199585 
	C372.306274,180.851746 372.306274,178.319077 372.306274,175.473221 
	C379.506805,171.278671 386.949768,166.942886 395.066742,162.214462 
	C391.708801,160.088623 388.536499,158.080307 384.998199,155.999374 
z"/>
<path fill="#FFFFFF" opacity="1.000000" stroke="none" 
	d="
M344.195374,174.059448 
	C345.236115,176.920090 345.887177,179.679337 346.538239,182.438599 
	C346.122131,182.743576 345.705994,183.048569 345.289856,183.353546 
	C340.693268,180.843185 336.065063,178.388474 331.510651,175.803696 
	C328.247864,173.951920 325.290161,171.356964 321.830505,170.102676 
	C315.665344,167.867538 313.674683,163.931961 315.479889,157.303619 
	C325.149780,151.786057 335.292450,145.998734 345.461700,140.196243 
	C347.547974,146.651993 344.935272,149.872543 339.495087,152.338470 
	C334.055328,154.804199 329.082947,158.301056 322.989471,161.884766 
	C330.432190,166.201492 337.118927,170.079758 344.195374,174.059448 
z"/>
<path fill="#FFFFFF" opacity="1.000000" stroke="none" 
	d="
M286.789124,230.015610 
	C287.837402,230.828934 288.909637,231.627533 288.915527,232.433975 
	C289.018036,246.392670 288.989349,260.352356 288.989349,274.654968 
	C285.340485,274.654968 281.960632,274.654968 278.286102,274.654968 
	C278.286102,259.903320 278.286102,245.196335 278.286102,230.004532 
	C281.085876,230.004532 283.701355,230.004532 286.789124,230.015610 
z"/>
<path fill="#FFFFFF" opacity="1.000000" stroke="none" 
	d="
M154.082626,141.326874 
	C157.170395,140.466003 160.199417,140.075500 163.638046,139.632202 
	C163.638046,154.924927 163.638046,169.634903 163.638046,184.673782 
	C160.639496,184.673782 157.591766,184.673782 154.023865,184.673782 
	C154.023865,170.321198 154.023865,156.059219 154.082626,141.326874 
z"/>
<path fill="#FFFFFF" opacity="1.000000" stroke="none" 
	d="
M356.001495,182.953949 
	C355.206726,187.021729 353.909760,190.244629 348.212128,191.069763 
	C348.155701,188.574524 347.478851,186.078812 348.150146,184.023376 
	C353.947601,166.272369 360.094635,148.635284 365.855804,130.872894 
	C366.875641,127.728722 368.096283,126.327812 372.282867,127.455948 
	C371.588287,131.368942 371.294037,135.565765 370.069489,139.470901 
	C365.550354,153.883041 360.723541,168.198715 356.001495,182.953949 
z"/>
<path fill="#000000" opacity="1.000000" stroke="none" 
	d="
M271.181030,60.000423 
	C280.270508,60.000122 288.878845,60.000122 297.740967,60.000122 
	C297.740967,68.376289 297.740967,76.300545 297.740967,84.613693 
	C287.768341,84.613693 277.727356,84.613693 267.020996,84.613693 
	C267.020996,77.141289 266.924835,69.554550 267.181091,61.979721 
	C267.204742,61.281178 269.473602,60.658588 271.181030,60.000423 
z"/>
<path fill="#000000" opacity="1.000000" stroke="none" 
	d="
M100.303833,264.911774 
	C99.430283,256.816223 99.030312,248.783310 98.611107,240.364075 
	C109.612358,240.364075 119.986313,240.364075 130.681885,240.364075 
	C130.681885,248.376633 130.681885,256.418884 130.681885,264.974426 
	C120.638878,264.974426 110.708153,264.974426 100.303833,264.911774 
z"/>
<path fill="#000000" opacity="1.000000" stroke="none" 
	d="
M173.002960,240.000000 
	C178.796448,240.000000 184.091080,240.000000 189.689362,240.000000 
	C189.689362,242.721985 189.689362,245.101196 189.689362,247.743073 
	C179.188843,247.743073 168.810104,247.743073 158.216156,247.743073 
	C158.216156,245.221100 158.216156,242.950958 158.216156,240.000000 
	C162.987640,240.000000 167.745865,240.000000 173.002960,240.000000 
z"/>
<path fill="#000000" opacity="1.000000" stroke="none" 
	d="
M201.088043,83.689995 
	C201.025452,75.736443 201.025452,68.257530 201.025452,60.389736 
	C211.558487,60.389736 221.933304,60.389736 232.655914,60.389736 
	C232.655914,68.322052 232.655914,76.364525 232.655914,84.164627 
	C222.122040,84.164627 211.636337,84.164627 201.088043,83.689995 
z"/>
</svg>